<svg width="361" height="304" viewBox="0 0 361 304" fill="none" xmlns="http://www.w3.org/2000/svg">
<g filter="url(#filter0_f_1514_331)">
<rect x="86" y="86" width="189" height="132" rx="66" fill="#CB0000" fill-opacity="0.15"/>
</g>
<path d="M330.442 140.744C329.925 140.744 329.505 141.164 329.505 141.681C329.505 142.199 329.925 142.619 330.442 142.619H340.029L321.029 161.619C320.656 161.992 320.656 162.597 321.029 162.97C321.402 163.343 322.007 163.343 322.381 162.97L341.38 143.971V153.556C341.38 154.074 341.8 154.494 342.317 154.494C342.835 154.494 343.255 154.074 343.255 153.556V141.681C343.255 141.164 342.835 140.744 342.317 140.744H330.442Z" fill="#CB0000"/>
<path d="M205.173 136.227C204.145 136.227 203.303 135.986 202.645 135.503C201.991 135.02 201.537 134.355 201.281 133.507C201.025 132.66 200.987 131.691 201.167 130.602C201.347 129.494 201.712 128.517 202.261 127.669C202.81 126.817 203.494 126.152 204.314 125.673C205.133 125.19 206.035 124.949 207.02 124.949C207.787 124.949 208.454 125.091 209.022 125.375C209.591 125.659 210.029 126.057 210.336 126.568C210.644 127.08 210.788 127.676 210.77 128.358H209.093C209.046 127.861 208.833 127.42 208.454 127.037C208.08 126.649 207.526 126.455 206.792 126.455C206.139 126.455 205.538 126.625 204.988 126.966C204.439 127.302 203.977 127.778 203.603 128.393C203.229 129.004 202.976 129.722 202.843 130.545C202.701 131.388 202.713 132.122 202.879 132.747C203.045 133.372 203.345 133.857 203.781 134.203C204.217 134.549 204.766 134.722 205.429 134.722C205.864 134.722 206.271 134.646 206.65 134.494C207.029 134.343 207.365 134.125 207.659 133.841C207.952 133.557 208.184 133.216 208.355 132.818H210.031C209.823 133.462 209.489 134.042 209.029 134.558C208.57 135.07 208.014 135.477 207.36 135.78C206.707 136.078 205.978 136.227 205.173 136.227ZM216.032 121.455L213.618 136H211.941L214.356 121.455H216.032ZM216.688 136L218.506 125.091H220.182L218.364 136H216.688ZM219.855 123.244C219.528 123.244 219.247 123.133 219.01 122.911C218.778 122.688 218.662 122.42 218.662 122.108C218.662 121.795 218.778 121.528 219.01 121.305C219.247 121.083 219.528 120.972 219.855 120.972C220.182 120.972 220.461 121.083 220.693 121.305C220.93 121.528 221.048 121.795 221.048 122.108C221.048 122.42 220.93 122.688 220.693 122.911C220.461 123.133 220.182 123.244 219.855 123.244ZM225.837 136.227C224.81 136.227 223.967 135.986 223.309 135.503C222.655 135.02 222.201 134.355 221.945 133.507C221.689 132.66 221.651 131.691 221.831 130.602C222.011 129.494 222.376 128.517 222.925 127.669C223.474 126.817 224.158 126.152 224.978 125.673C225.797 125.19 226.699 124.949 227.684 124.949C228.451 124.949 229.118 125.091 229.686 125.375C230.255 125.659 230.693 126.057 231 126.568C231.308 127.08 231.453 127.676 231.434 128.358H229.757C229.71 127.861 229.497 127.42 229.118 127.037C228.744 126.649 228.19 126.455 227.456 126.455C226.803 126.455 226.202 126.625 225.652 126.966C225.103 127.302 224.641 127.778 224.267 128.393C223.893 129.004 223.64 129.722 223.507 130.545C223.365 131.388 223.377 132.122 223.543 132.747C223.709 133.372 224.009 133.857 224.445 134.203C224.881 134.549 225.43 134.722 226.093 134.722C226.528 134.722 226.935 134.646 227.314 134.494C227.693 134.343 228.029 134.125 228.323 133.841C228.616 133.557 228.848 133.216 229.019 132.818H230.695C230.487 133.462 230.153 134.042 229.694 134.558C229.234 135.07 228.678 135.477 228.025 135.78C227.371 136.078 226.642 136.227 225.837 136.227ZM234.821 132.023L235.134 129.949H235.475L241.071 125.091H243.145L237.208 130.233H237.066L234.821 132.023ZM232.605 136L235.02 121.455H236.696L234.282 136H232.605ZM239.537 136L236.185 130.602L237.549 129.438L241.668 136H239.537ZM255.672 125.091L255.445 126.511H249.791L250.018 125.091H255.672ZM252.092 122.477H253.768L252.036 132.875C251.96 133.348 251.972 133.704 252.071 133.94C252.175 134.172 252.331 134.329 252.54 134.409C252.753 134.485 252.982 134.523 253.229 134.523C253.413 134.523 253.565 134.513 253.683 134.494C253.802 134.471 253.896 134.452 253.967 134.438L254.081 135.943C253.953 135.986 253.78 136.028 253.562 136.071C253.349 136.118 253.087 136.142 252.774 136.142C252.301 136.142 251.856 136.04 251.439 135.837C251.022 135.633 250.703 135.323 250.48 134.906C250.258 134.49 250.198 133.964 250.303 133.33L252.092 122.477ZM260.761 136.227C259.757 136.227 258.916 135.988 258.239 135.51C257.562 135.032 257.084 134.362 256.805 133.5C256.53 132.638 256.485 131.634 256.67 130.489C256.85 129.371 257.207 128.398 257.742 127.57C258.282 126.736 258.952 126.092 259.752 125.638C260.557 125.179 261.442 124.949 262.408 124.949C263.412 124.949 264.25 125.19 264.923 125.673C265.6 126.152 266.078 126.824 266.357 127.69C266.637 128.552 266.684 129.561 266.499 130.716C266.319 131.824 265.957 132.792 265.413 133.621C264.873 134.445 264.203 135.086 263.403 135.545C262.607 136 261.727 136.227 260.761 136.227ZM260.789 134.722C261.556 134.722 262.221 134.525 262.785 134.132C263.353 133.739 263.812 133.221 264.163 132.577C264.518 131.933 264.757 131.237 264.88 130.489C264.994 129.778 264.989 129.118 264.866 128.507C264.743 127.892 264.48 127.397 264.077 127.023C263.675 126.644 263.109 126.455 262.38 126.455C261.613 126.455 260.943 126.653 260.37 127.051C259.802 127.449 259.343 127.972 258.992 128.621C258.642 129.269 258.407 129.968 258.289 130.716C258.175 131.426 258.178 132.087 258.296 132.697C258.419 133.304 258.682 133.794 259.085 134.168C259.492 134.537 260.06 134.722 260.789 134.722ZM282.964 127.534L281.373 127.96C281.316 127.705 281.217 127.458 281.075 127.222C280.938 126.98 280.725 126.784 280.436 126.632C280.152 126.476 279.763 126.398 279.271 126.398C278.603 126.398 278.023 126.552 277.531 126.859C277.038 127.162 276.757 127.548 276.686 128.017C276.615 128.429 276.709 128.758 276.97 129.004C277.23 129.25 277.666 129.452 278.277 129.608L279.839 130.006C280.777 130.247 281.444 130.609 281.842 131.092C282.244 131.571 282.382 132.193 282.254 132.96C282.15 133.585 281.877 134.144 281.437 134.636C280.997 135.129 280.433 135.517 279.747 135.801C279.06 136.085 278.296 136.227 277.453 136.227C276.331 136.227 275.445 135.986 274.797 135.503C274.148 135.015 273.802 134.31 273.76 133.386L275.436 132.989C275.478 133.571 275.687 134.011 276.061 134.31C276.44 134.603 276.97 134.75 277.652 134.75C278.433 134.75 279.084 134.584 279.605 134.253C280.126 133.917 280.422 133.514 280.493 133.045C280.564 132.662 280.488 132.342 280.265 132.087C280.047 131.831 279.669 131.639 279.129 131.511L277.396 131.085C276.43 130.844 275.753 130.474 275.365 129.977C274.981 129.48 274.853 128.855 274.981 128.102C275.085 127.487 275.35 126.942 275.777 126.469C276.208 125.995 276.747 125.624 277.396 125.354C278.049 125.084 278.76 124.949 279.527 124.949C280.606 124.949 281.413 125.186 281.949 125.659C282.484 126.128 282.822 126.753 282.964 127.534ZM288.811 136.227C287.765 136.227 286.901 135.995 286.219 135.531C285.537 135.062 285.061 134.409 284.791 133.571C284.521 132.728 284.479 131.748 284.663 130.631C284.848 129.513 285.215 128.528 285.764 127.676C286.313 126.819 286.998 126.152 287.817 125.673C288.636 125.19 289.536 124.949 290.516 124.949C291.084 124.949 291.631 125.044 292.156 125.233C292.682 125.422 293.136 125.73 293.52 126.156C293.903 126.578 294.171 127.136 294.322 127.832C294.474 128.528 294.464 129.385 294.294 130.403L294.18 131.114H285.771L285.999 129.665H292.703C292.812 129.049 292.784 128.5 292.618 128.017C292.457 127.534 292.175 127.153 291.773 126.874C291.375 126.594 290.871 126.455 290.26 126.455C289.63 126.455 289.043 126.625 288.499 126.966C287.954 127.302 287.5 127.728 287.135 128.244C286.77 128.756 286.543 129.277 286.453 129.807L286.254 131.057C286.112 131.961 286.134 132.681 286.318 133.216C286.508 133.751 286.837 134.137 287.305 134.374C287.774 134.606 288.361 134.722 289.067 134.722C289.517 134.722 289.931 134.66 290.31 134.537C290.688 134.409 291.027 134.22 291.325 133.969C291.624 133.713 291.875 133.396 292.078 133.017L293.612 133.472C293.352 134.021 292.985 134.504 292.511 134.92C292.043 135.332 291.493 135.654 290.864 135.886C290.239 136.114 289.554 136.227 288.811 136.227ZM300.491 136.227C299.444 136.227 298.58 135.995 297.898 135.531C297.217 135.062 296.741 134.409 296.471 133.571C296.201 132.728 296.158 131.748 296.343 130.631C296.528 129.513 296.895 128.528 297.444 127.676C297.993 126.819 298.677 126.152 299.496 125.673C300.316 125.19 301.215 124.949 302.195 124.949C302.763 124.949 303.31 125.044 303.836 125.233C304.362 125.422 304.816 125.73 305.2 126.156C305.583 126.578 305.851 127.136 306.002 127.832C306.154 128.528 306.144 129.385 305.974 130.403L305.86 131.114H297.451L297.678 129.665H304.383C304.492 129.049 304.463 128.5 304.298 128.017C304.137 127.534 303.855 127.153 303.452 126.874C303.055 126.594 302.55 126.455 301.94 126.455C301.31 126.455 300.723 126.625 300.178 126.966C299.634 127.302 299.179 127.728 298.815 128.244C298.45 128.756 298.223 129.277 298.133 129.807L297.934 131.057C297.792 131.961 297.813 132.681 297.998 133.216C298.187 133.751 298.516 134.137 298.985 134.374C299.454 134.606 300.041 134.722 300.746 134.722C301.196 134.722 301.611 134.66 301.989 134.537C302.368 134.409 302.707 134.22 303.005 133.969C303.303 133.713 303.554 133.396 303.758 133.017L305.292 133.472C305.031 134.021 304.665 134.504 304.191 134.92C303.722 135.332 303.173 135.654 302.543 135.886C301.918 136.114 301.234 136.227 300.491 136.227ZM135.555 149.091L135.327 150.511H129.674L129.901 149.091H135.555ZM131.975 146.477H133.651L131.918 156.875C131.843 157.348 131.854 157.704 131.954 157.94C132.058 158.172 132.214 158.329 132.423 158.409C132.636 158.485 132.865 158.523 133.112 158.523C133.296 158.523 133.448 158.513 133.566 158.494C133.684 158.471 133.779 158.452 133.85 158.438L133.964 159.943C133.836 159.986 133.663 160.028 133.445 160.071C133.232 160.118 132.969 160.142 132.657 160.142C132.183 160.142 131.738 160.04 131.322 159.837C130.905 159.633 130.585 159.323 130.363 158.906C130.14 158.49 130.081 157.964 130.185 157.33L131.975 146.477ZM139.248 153.438L138.168 160H136.492L138.907 145.455H140.583L139.702 150.795H139.844C140.185 150.227 140.64 149.777 141.208 149.446C141.781 149.115 142.501 148.949 143.367 148.949C144.106 148.949 144.728 149.098 145.235 149.396C145.746 149.69 146.106 150.142 146.315 150.753C146.528 151.359 146.558 152.131 146.407 153.068L145.242 160H143.566L144.702 153.182C144.844 152.315 144.728 151.645 144.354 151.172C143.985 150.694 143.41 150.455 142.629 150.455C142.079 150.455 141.568 150.571 141.094 150.803C140.626 151.035 140.228 151.373 139.901 151.818C139.579 152.263 139.362 152.803 139.248 153.438ZM152.854 160.227C151.808 160.227 150.944 159.995 150.262 159.531C149.58 159.062 149.104 158.409 148.834 157.571C148.564 156.728 148.522 155.748 148.706 154.631C148.891 153.513 149.258 152.528 149.807 151.676C150.356 150.819 151.041 150.152 151.86 149.673C152.679 149.19 153.578 148.949 154.559 148.949C155.127 148.949 155.674 149.044 156.199 149.233C156.725 149.422 157.179 149.73 157.563 150.156C157.946 150.578 158.214 151.136 158.365 151.832C158.517 152.528 158.507 153.385 158.337 154.403L158.223 155.114H149.814L150.042 153.665H156.746C156.855 153.049 156.827 152.5 156.661 152.017C156.5 151.534 156.218 151.153 155.816 150.874C155.418 150.594 154.914 150.455 154.303 150.455C153.673 150.455 153.086 150.625 152.542 150.966C151.997 151.302 151.542 151.728 151.178 152.244C150.813 152.756 150.586 153.277 150.496 153.807L150.297 155.057C150.155 155.961 150.176 156.681 150.361 157.216C150.551 157.751 150.88 158.137 151.348 158.374C151.817 158.606 152.404 158.722 153.11 158.722C153.56 158.722 153.974 158.66 154.353 158.537C154.731 158.409 155.07 158.22 155.368 157.969C155.667 157.713 155.917 157.396 156.121 157.017L157.655 157.472C157.395 158.021 157.028 158.504 156.554 158.92C156.086 159.332 155.536 159.654 154.907 159.886C154.282 160.114 153.597 160.227 152.854 160.227ZM172.289 149.091L172.062 150.511H166.181L166.409 149.091H172.289ZM166.352 160L168.426 147.585C168.52 146.96 168.748 146.439 169.108 146.023C169.472 145.606 169.905 145.294 170.407 145.085C170.914 144.877 171.428 144.773 171.949 144.773C172.36 144.773 172.69 144.806 172.936 144.872C173.187 144.938 173.369 145 173.483 145.057L172.772 146.506C172.687 146.477 172.574 146.442 172.431 146.399C172.294 146.357 172.105 146.335 171.863 146.335C171.309 146.335 170.888 146.475 170.599 146.754C170.31 147.034 170.116 147.443 170.017 147.983L168.028 160H166.352ZM180.434 155.54L181.513 149.091H183.19L181.371 160H179.695L180.008 158.153H179.894C179.553 158.707 179.077 159.179 178.467 159.567C177.856 159.95 177.138 160.142 176.315 160.142C175.633 160.142 175.05 159.993 174.567 159.695C174.089 159.392 173.748 158.937 173.545 158.331C173.346 157.72 173.322 156.951 173.474 156.023L174.638 149.091H176.315L175.178 155.909C175.05 156.705 175.171 157.339 175.54 157.812C175.91 158.286 176.442 158.523 177.138 158.523C177.555 158.523 177.996 158.416 178.46 158.203C178.928 157.99 179.345 157.663 179.71 157.223C180.079 156.783 180.32 156.222 180.434 155.54ZM188.532 145.455L186.118 160H184.441L186.856 145.455H188.532ZM193.278 145.455L190.864 160H189.188L191.602 145.455H193.278ZM210.297 149.091L204.445 160H202.74L200.525 149.091H202.272L203.834 157.784H203.948L208.408 149.091H210.297ZM210.691 160L212.51 149.091H214.186L212.368 160H210.691ZM213.859 147.244C213.532 147.244 213.251 147.133 213.014 146.911C212.782 146.688 212.666 146.42 212.666 146.108C212.666 145.795 212.782 145.528 213.014 145.305C213.251 145.083 213.532 144.972 213.859 144.972C214.186 144.972 214.465 145.083 214.697 145.305C214.934 145.528 215.052 145.795 215.052 146.108C215.052 146.42 214.934 146.688 214.697 146.911C214.465 147.133 214.186 147.244 213.859 147.244ZM224.585 151.534L222.994 151.96C222.938 151.705 222.838 151.458 222.696 151.222C222.559 150.98 222.346 150.784 222.057 150.632C221.773 150.476 221.384 150.398 220.892 150.398C220.224 150.398 219.644 150.552 219.152 150.859C218.66 151.162 218.378 151.548 218.307 152.017C218.236 152.429 218.33 152.758 218.591 153.004C218.851 153.25 219.287 153.452 219.898 153.608L221.46 154.006C222.398 154.247 223.065 154.609 223.463 155.092C223.866 155.571 224.003 156.193 223.875 156.96C223.771 157.585 223.499 158.144 223.058 158.636C222.618 159.129 222.054 159.517 221.368 159.801C220.681 160.085 219.917 160.227 219.074 160.227C217.952 160.227 217.066 159.986 216.418 159.503C215.769 159.015 215.423 158.31 215.381 157.386L217.057 156.989C217.099 157.571 217.308 158.011 217.682 158.31C218.061 158.603 218.591 158.75 219.273 158.75C220.054 158.75 220.705 158.584 221.226 158.253C221.747 157.917 222.043 157.514 222.114 157.045C222.185 156.662 222.109 156.342 221.886 156.087C221.669 155.831 221.29 155.639 220.75 155.511L219.017 155.085C218.051 154.844 217.374 154.474 216.986 153.977C216.602 153.48 216.474 152.855 216.602 152.102C216.706 151.487 216.972 150.942 217.398 150.469C217.829 149.995 218.368 149.624 219.017 149.354C219.67 149.084 220.381 148.949 221.148 148.949C222.227 148.949 223.035 149.186 223.57 149.659C224.105 150.128 224.443 150.753 224.585 151.534ZM233.5 155.54L234.58 149.091H236.256L234.438 160H232.762L233.074 158.153H232.961C232.62 158.707 232.144 159.179 231.533 159.567C230.922 159.95 230.205 160.142 229.381 160.142C228.699 160.142 228.117 159.993 227.634 159.695C227.156 159.392 226.815 158.937 226.611 158.331C226.412 157.72 226.389 156.951 226.54 156.023L227.705 149.091H229.381L228.245 155.909C228.117 156.705 228.238 157.339 228.607 157.812C228.976 158.286 229.509 158.523 230.205 158.523C230.622 158.523 231.062 158.416 231.526 158.203C231.995 157.99 232.411 157.663 232.776 157.223C233.145 156.783 233.387 156.222 233.5 155.54ZM240.69 160.256C239.998 160.256 239.392 160.125 238.871 159.865C238.351 159.6 237.965 159.219 237.714 158.722C237.463 158.22 237.394 157.614 237.508 156.903C237.617 156.278 237.827 155.772 238.14 155.384C238.452 154.991 238.831 154.683 239.276 154.46C239.726 154.233 240.209 154.065 240.725 153.956C241.246 153.842 241.764 153.755 242.281 153.693C242.953 153.608 243.5 153.542 243.921 153.494C244.343 153.447 244.66 153.369 244.873 153.26C245.086 153.151 245.216 152.964 245.263 152.699V152.642C245.377 151.946 245.285 151.404 244.987 151.016C244.688 150.623 244.156 150.426 243.388 150.426C242.593 150.426 241.928 150.601 241.393 150.952C240.858 151.302 240.462 151.676 240.207 152.074L238.729 151.506C239.118 150.843 239.582 150.327 240.121 149.957C240.661 149.583 241.227 149.323 241.819 149.176C242.411 149.025 242.981 148.949 243.531 148.949C243.881 148.949 244.276 148.991 244.717 149.077C245.157 149.157 245.569 149.325 245.952 149.581C246.341 149.837 246.632 150.223 246.826 150.739C247.025 151.255 247.053 151.946 246.911 152.812L245.718 160H244.042L244.298 158.523H244.212C244.061 158.759 243.829 159.013 243.516 159.283C243.209 159.553 242.818 159.782 242.344 159.972C241.876 160.161 241.324 160.256 240.69 160.256ZM241.173 158.75C241.835 158.75 242.415 158.62 242.913 158.359C243.415 158.099 243.817 157.763 244.12 157.351C244.428 156.939 244.62 156.506 244.695 156.051L244.951 154.517C244.866 154.602 244.698 154.68 244.447 154.751C244.196 154.818 243.912 154.877 243.594 154.929C243.282 154.976 242.977 155.019 242.678 155.057C242.385 155.09 242.148 155.118 241.968 155.142C241.523 155.199 241.099 155.291 240.697 155.419C240.299 155.542 239.963 155.729 239.688 155.98C239.418 156.226 239.25 156.562 239.184 156.989C239.085 157.571 239.224 158.011 239.603 158.31C239.982 158.603 240.505 158.75 241.173 158.75ZM252.868 145.455L250.453 160H248.777L251.192 145.455H252.868ZM268.296 151.534L266.705 151.96C266.648 151.705 266.549 151.458 266.407 151.222C266.27 150.98 266.057 150.784 265.768 150.632C265.484 150.476 265.095 150.398 264.603 150.398C263.935 150.398 263.355 150.552 262.863 150.859C262.371 151.162 262.089 151.548 262.018 152.017C261.947 152.429 262.041 152.758 262.302 153.004C262.562 153.25 262.998 153.452 263.609 153.608L265.171 154.006C266.109 154.247 266.776 154.609 267.174 155.092C267.576 155.571 267.714 156.193 267.586 156.96C267.482 157.585 267.21 158.144 266.769 158.636C266.329 159.129 265.765 159.517 265.079 159.801C264.392 160.085 263.628 160.227 262.785 160.227C261.663 160.227 260.777 159.986 260.129 159.503C259.48 159.015 259.134 158.31 259.092 157.386L260.768 156.989C260.81 157.571 261.019 158.011 261.393 158.31C261.772 158.603 262.302 158.75 262.984 158.75C263.765 158.75 264.416 158.584 264.937 158.253C265.458 157.917 265.754 157.514 265.825 157.045C265.896 156.662 265.82 156.342 265.597 156.087C265.379 155.831 265.001 155.639 264.461 155.511L262.728 155.085C261.762 154.844 261.085 154.474 260.697 153.977C260.313 153.48 260.185 152.855 260.313 152.102C260.417 151.487 260.683 150.942 261.109 150.469C261.54 149.995 262.079 149.624 262.728 149.354C263.381 149.084 264.092 148.949 264.859 148.949C265.938 148.949 266.746 149.186 267.281 149.659C267.816 150.128 268.154 150.753 268.296 151.534ZM276.16 149.091L275.933 150.511H270.279L270.507 149.091H276.16ZM272.581 146.477H274.257L272.524 156.875C272.448 157.348 272.46 157.704 272.559 157.94C272.663 158.172 272.82 158.329 273.028 158.409C273.241 158.485 273.471 158.523 273.717 158.523C273.902 158.523 274.053 158.513 274.172 158.494C274.29 158.471 274.385 158.452 274.456 158.438L274.569 159.943C274.441 159.986 274.269 160.028 274.051 160.071C273.838 160.118 273.575 160.142 273.262 160.142C272.789 160.142 272.344 160.04 271.927 159.837C271.511 159.633 271.191 159.323 270.968 158.906C270.746 158.49 270.687 157.964 270.791 157.33L272.581 146.477ZM281.249 160.227C280.245 160.227 279.405 159.988 278.728 159.51C278.051 159.032 277.572 158.362 277.293 157.5C277.018 156.638 276.973 155.634 277.158 154.489C277.338 153.371 277.695 152.398 278.23 151.57C278.77 150.736 279.44 150.092 280.24 149.638C281.045 149.179 281.931 148.949 282.897 148.949C283.9 148.949 284.739 149.19 285.411 149.673C286.088 150.152 286.566 150.824 286.846 151.69C287.125 152.552 287.172 153.561 286.988 154.716C286.808 155.824 286.445 156.792 285.901 157.621C285.361 158.445 284.691 159.086 283.891 159.545C283.096 160 282.215 160.227 281.249 160.227ZM281.277 158.722C282.044 158.722 282.71 158.525 283.273 158.132C283.841 157.739 284.301 157.221 284.651 156.577C285.006 155.933 285.245 155.237 285.368 154.489C285.482 153.778 285.477 153.118 285.354 152.507C285.231 151.892 284.968 151.397 284.566 151.023C284.163 150.644 283.597 150.455 282.868 150.455C282.101 150.455 281.431 150.653 280.858 151.051C280.29 151.449 279.831 151.972 279.48 152.621C279.13 153.269 278.896 153.968 278.777 154.716C278.664 155.426 278.666 156.087 278.784 156.697C278.908 157.304 279.17 157.794 279.573 158.168C279.98 158.537 280.548 158.722 281.277 158.722ZM288.68 160L290.498 149.091H292.117L291.833 150.739H291.947C292.231 150.199 292.664 149.761 293.246 149.425C293.829 149.089 294.447 148.92 295.1 148.92C295.228 148.92 295.382 148.923 295.562 148.928C295.742 148.928 295.881 148.935 295.981 148.949L295.697 150.653C295.64 150.639 295.512 150.618 295.313 150.589C295.114 150.556 294.901 150.54 294.674 150.54C294.144 150.54 293.654 150.651 293.204 150.874C292.754 151.091 292.378 151.394 292.075 151.783C291.772 152.166 291.577 152.604 291.492 153.097L290.356 160H288.68ZM296.904 164.091C296.62 164.091 296.369 164.067 296.151 164.02C295.938 163.977 295.791 163.935 295.711 163.892L296.393 162.415C296.781 162.519 297.127 162.55 297.43 162.507C297.737 162.469 298.029 162.32 298.303 162.06C298.583 161.804 298.874 161.402 299.177 160.852L299.646 160L297.458 149.091H299.205L300.768 157.812H300.881L305.342 149.091H307.231L300.54 161.577C300.228 162.159 299.885 162.635 299.511 163.004C299.137 163.374 298.732 163.646 298.296 163.821C297.861 164.001 297.397 164.091 296.904 164.091Z" fill="#CB0000"/>
<defs>
<filter id="filter0_f_1514_331" x="0.800003" y="0.800003" width="359.4" height="302.4" filterUnits="userSpaceOnUse" color-interpolation-filters="sRGB">
<feFlood flood-opacity="0" result="BackgroundImageFix"/>
<feBlend mode="normal" in="SourceGraphic" in2="BackgroundImageFix" result="shape"/>
<feGaussianBlur stdDeviation="42.6" result="effect1_foregroundBlur_1514_331"/>
</filter>
</defs>
</svg>
