<svg width="764" height="308" viewBox="0 0 764 308" fill="none" xmlns="http://www.w3.org/2000/svg">
<path d="M0.0908203 95V1.90908H19.7726V78.7727H59.6817V95H0.0908203Z" fill="#F5EFE8"/>
<path d="M91.1363 95H70.0454L102.182 1.90908H127.545L159.636 95H138.545L115.227 23.1818H114.5L91.1363 95ZM89.8181 58.4091H139.636V73.7727H89.8181V58.4091Z" fill="#F5EFE8"/>
<path d="M155.92 18.1364V1.90908H232.375V18.1364H203.875V95H184.42V18.1364H155.92Z" fill="#F5EFE8"/>
<path d="M244.966 95V1.90908H307.693V18.1364H264.648V40.3182H304.466V56.5454H264.648V78.7727H307.875V95H244.966Z" fill="#F5EFE8"/>
<path d="M373.841 28.6818C373.477 25.0151 371.917 22.1667 369.159 20.1364C366.401 18.106 362.659 17.0909 357.932 17.0909C354.72 17.0909 352.007 17.5454 349.795 18.4545C347.583 19.3333 345.886 20.5606 344.704 22.1364C343.553 23.7121 342.977 25.5 342.977 27.5C342.917 29.1667 343.265 30.6212 344.023 31.8636C344.811 33.1061 345.886 34.1818 347.25 35.0909C348.614 35.9697 350.189 36.7424 351.977 37.4091C353.765 38.0454 355.674 38.5909 357.704 39.0454L366.068 41.0454C370.129 41.9545 373.856 43.1667 377.25 44.6818C380.644 46.197 383.583 48.0606 386.068 50.2727C388.553 52.4848 390.477 55.0909 391.841 58.0909C393.235 61.0909 393.947 64.5303 393.977 68.4091C393.947 74.1061 392.492 79.0454 389.614 83.2273C386.765 87.3788 382.644 90.6061 377.25 92.9091C371.886 95.1818 365.417 96.3182 357.841 96.3182C350.326 96.3182 343.78 95.1667 338.204 92.8636C332.659 90.5606 328.326 87.1515 325.204 82.6364C322.114 78.0909 320.492 72.4697 320.341 65.7727H339.386C339.598 68.8939 340.492 71.5 342.068 73.5909C343.674 75.6515 345.811 77.2121 348.477 78.2727C351.174 79.303 354.22 79.8182 357.614 79.8182C360.947 79.8182 363.841 79.3333 366.295 78.3636C368.78 77.3939 370.704 76.0454 372.068 74.3182C373.432 72.5909 374.114 70.6061 374.114 68.3636C374.114 66.2727 373.492 64.5151 372.25 63.0909C371.038 61.6667 369.25 60.4545 366.886 59.4545C364.553 58.4545 361.689 57.5454 358.295 56.7273L348.159 54.1818C340.311 52.2727 334.114 49.2879 329.568 45.2273C325.023 41.1667 322.765 35.697 322.795 28.8182C322.765 23.1818 324.265 18.2576 327.295 14.0454C330.356 9.83333 334.553 6.54545 339.886 4.18181C345.22 1.81817 351.28 0.636353 358.068 0.636353C364.977 0.636353 371.007 1.81817 376.159 4.18181C381.341 6.54545 385.371 9.83333 388.25 14.0454C391.129 18.2576 392.614 23.1364 392.704 28.6818H373.841Z" fill="#F5EFE8"/>
<path d="M403.67 18.1364V1.90908H480.125V18.1364H451.625V95H432.17V18.1364H403.67Z" fill="#F5EFE8"/>
<path d="M0.0908203 250V156.909H36.8181C43.8787 156.909 49.8939 158.258 54.8636 160.955C59.8332 163.621 63.6211 167.333 66.2272 172.091C68.8635 176.818 70.1817 182.273 70.1817 188.455C70.1817 194.636 68.8484 200.091 66.1817 204.818C63.5151 209.545 59.6514 213.227 54.5908 215.864C49.5605 218.5 43.4696 219.818 36.3181 219.818H12.909V204.045H33.1363C36.9242 204.045 40.0454 203.394 42.4999 202.091C44.9848 200.758 46.8332 198.924 48.0454 196.591C49.2878 194.227 49.909 191.515 49.909 188.455C49.909 185.364 49.2878 182.667 48.0454 180.364C46.8332 178.03 44.9848 176.227 42.4999 174.955C40.0151 173.651 36.8635 173 33.0454 173H19.7726V250H0.0908203Z" fill="#F5EFE8"/>
<path d="M82.9658 250V156.909H119.693C126.723 156.909 132.723 158.167 137.693 160.682C142.693 163.167 146.496 166.697 149.102 171.273C151.739 175.818 153.057 181.167 153.057 187.318C153.057 193.5 151.723 198.818 149.057 203.273C146.39 207.697 142.526 211.091 137.466 213.455C132.436 215.818 126.345 217 119.193 217H94.6022V201.182H116.011C119.769 201.182 122.89 200.667 125.375 199.636C127.86 198.606 129.708 197.061 130.92 195C132.163 192.939 132.784 190.379 132.784 187.318C132.784 184.227 132.163 181.621 130.92 179.5C129.708 177.379 127.845 175.773 125.329 174.682C122.845 173.561 119.708 173 115.92 173H102.648V250H82.9658ZM133.239 207.636L156.375 250H134.648L112.011 207.636H133.239Z" fill="#F5EFE8"/>
<path d="M252.511 203.455C252.511 213.606 250.587 222.242 246.739 229.364C242.92 236.485 237.708 241.924 231.102 245.682C224.526 249.409 217.132 251.273 208.92 251.273C200.648 251.273 193.223 249.394 186.648 245.636C180.072 241.879 174.875 236.439 171.057 229.318C167.239 222.197 165.329 213.576 165.329 203.455C165.329 193.303 167.239 184.667 171.057 177.545C174.875 170.424 180.072 165 186.648 161.273C193.223 157.515 200.648 155.636 208.92 155.636C217.132 155.636 224.526 157.515 231.102 161.273C237.708 165 242.92 170.424 246.739 177.545C250.587 184.667 252.511 193.303 252.511 203.455ZM232.557 203.455C232.557 196.879 231.572 191.333 229.602 186.818C227.663 182.303 224.92 178.879 221.375 176.545C217.829 174.212 213.678 173.045 208.92 173.045C204.163 173.045 200.011 174.212 196.466 176.545C192.92 178.879 190.163 182.303 188.193 186.818C186.254 191.333 185.284 196.879 185.284 203.455C185.284 210.03 186.254 215.576 188.193 220.091C190.163 224.606 192.92 228.03 196.466 230.364C200.011 232.697 204.163 233.864 208.92 233.864C213.678 233.864 217.829 232.697 221.375 230.364C224.92 228.03 227.663 224.606 229.602 220.091C231.572 215.576 232.557 210.03 232.557 203.455Z" fill="#F5EFE8"/>
<path d="M304.364 156.909H323.818V221.818C323.818 227.818 322.47 233.03 319.773 237.455C317.106 241.879 313.394 245.288 308.636 247.682C303.879 250.076 298.348 251.273 292.045 251.273C286.439 251.273 281.348 250.288 276.773 248.318C272.227 246.318 268.621 243.288 265.954 239.227C263.288 235.136 261.97 230 262 223.818H281.591C281.651 226.273 282.151 228.379 283.091 230.136C284.061 231.864 285.379 233.197 287.045 234.136C288.742 235.045 290.742 235.5 293.045 235.5C295.47 235.5 297.515 234.985 299.182 233.955C300.879 232.894 302.167 231.348 303.045 229.318C303.924 227.288 304.364 224.788 304.364 221.818V156.909Z" fill="#F5EFE8"/>
<path d="M340.091 250V156.909H402.818V173.136H359.773V195.318H399.591V211.545H359.773V233.773H403V250H340.091Z" fill="#F5EFE8"/>
<path d="M500.602 189.5H480.693C480.329 186.924 479.587 184.636 478.466 182.636C477.345 180.606 475.905 178.879 474.148 177.455C472.39 176.03 470.36 174.939 468.057 174.182C465.784 173.424 463.314 173.045 460.648 173.045C455.829 173.045 451.632 174.242 448.057 176.636C444.481 179 441.708 182.455 439.739 187C437.769 191.515 436.784 197 436.784 203.455C436.784 210.091 437.769 215.667 439.739 220.182C441.739 224.697 444.526 228.106 448.102 230.409C451.678 232.712 455.814 233.864 460.511 233.864C463.148 233.864 465.587 233.515 467.829 232.818C470.102 232.121 472.117 231.106 473.875 229.773C475.632 228.409 477.087 226.758 478.239 224.818C479.42 222.879 480.239 220.667 480.693 218.182L500.602 218.273C500.087 222.545 498.799 226.667 496.739 230.636C494.708 234.576 491.966 238.106 488.511 241.227C485.087 244.318 480.996 246.773 476.239 248.591C471.511 250.379 466.163 251.273 460.193 251.273C451.89 251.273 444.466 249.394 437.92 245.636C431.405 241.879 426.254 236.439 422.466 229.318C418.708 222.197 416.829 213.576 416.829 203.455C416.829 193.303 418.739 184.667 422.557 177.545C426.375 170.424 431.557 165 438.102 161.273C444.648 157.515 452.011 155.636 460.193 155.636C465.587 155.636 470.587 156.394 475.193 157.909C479.829 159.424 483.936 161.636 487.511 164.545C491.087 167.424 493.996 170.955 496.239 175.136C498.511 179.318 499.966 184.106 500.602 189.5Z" fill="#F5EFE8"/>
<path d="M511.17 173.136V156.909H587.625V173.136H559.125V250H539.67V173.136H511.17Z" fill="#F5EFE8"/>
<path d="M650.716 183.682C650.352 180.015 648.792 177.167 646.034 175.136C643.276 173.106 639.534 172.091 634.807 172.091C631.595 172.091 628.882 172.545 626.67 173.455C624.458 174.333 622.761 175.561 621.579 177.136C620.428 178.712 619.852 180.5 619.852 182.5C619.792 184.167 620.14 185.621 620.898 186.864C621.686 188.106 622.761 189.182 624.125 190.091C625.489 190.97 627.064 191.742 628.852 192.409C630.64 193.045 632.549 193.591 634.579 194.045L642.943 196.045C647.004 196.955 650.731 198.167 654.125 199.682C657.519 201.197 660.458 203.061 662.943 205.273C665.428 207.485 667.352 210.091 668.716 213.091C670.11 216.091 670.822 219.53 670.852 223.409C670.822 229.106 669.367 234.045 666.489 238.227C663.64 242.379 659.519 245.606 654.125 247.909C648.761 250.182 642.292 251.318 634.716 251.318C627.201 251.318 620.655 250.167 615.079 247.864C609.534 245.561 605.201 242.152 602.079 237.636C598.989 233.091 597.367 227.47 597.216 220.773H616.261C616.473 223.894 617.367 226.5 618.943 228.591C620.549 230.652 622.686 232.212 625.352 233.273C628.049 234.303 631.095 234.818 634.489 234.818C637.822 234.818 640.716 234.333 643.17 233.364C645.655 232.394 647.579 231.045 648.943 229.318C650.307 227.591 650.989 225.606 650.989 223.364C650.989 221.273 650.367 219.515 649.125 218.091C647.913 216.667 646.125 215.455 643.761 214.455C641.428 213.455 638.564 212.545 635.17 211.727L625.034 209.182C617.186 207.273 610.989 204.288 606.443 200.227C601.898 196.167 599.64 190.697 599.67 183.818C599.64 178.182 601.14 173.258 604.17 169.045C607.231 164.833 611.428 161.545 616.761 159.182C622.095 156.818 628.155 155.636 634.943 155.636C641.852 155.636 647.882 156.818 653.034 159.182C658.216 161.545 662.246 164.833 665.125 169.045C668.004 173.258 669.489 178.136 669.579 183.682H650.716Z" fill="#F5EFE8"/>
<path d="M508.25 297.003C508.25 294.889 508.531 292.943 509.094 291.165C509.662 289.386 510.528 287.739 511.693 286.222H515.162C514.719 286.784 514.307 287.472 513.926 288.284C513.545 289.091 513.213 289.977 512.929 290.943C512.645 291.909 512.423 292.909 512.264 293.943C512.105 294.972 512.025 295.991 512.025 297.003C512.025 298.349 512.162 299.71 512.435 301.085C512.713 302.455 513.088 303.727 513.56 304.903C514.037 306.08 514.571 307.043 515.162 307.793H511.693C510.528 306.276 509.662 304.628 509.094 302.849C508.531 301.071 508.25 299.122 508.25 297.003Z" fill="#F5EFE8"/>
<path d="M522.696 292V290.159C522.696 289.636 522.798 289.102 523.003 288.557C523.207 288.011 523.477 287.497 523.812 287.014C524.148 286.531 524.511 286.128 524.903 285.804L526.506 286.75C526.187 287.25 525.926 287.773 525.721 288.318C525.523 288.864 525.423 289.472 525.423 290.142V292H522.696Z" fill="#F5EFE8"/>
<path d="M536.196 286.545V304H532.506V290.048H532.403L528.406 292.554V289.281L532.727 286.545H536.196Z" fill="#F5EFE8"/>
<path d="M546.66 286.307C547.557 286.307 548.421 286.457 549.251 286.759C550.086 287.06 550.83 287.54 551.484 288.199C552.143 288.858 552.663 289.733 553.043 290.824C553.43 291.909 553.626 293.241 553.631 294.821C553.631 296.304 553.464 297.628 553.128 298.793C552.799 299.952 552.324 300.938 551.705 301.75C551.086 302.562 550.339 303.182 549.464 303.608C548.589 304.028 547.611 304.239 546.532 304.239C545.367 304.239 544.339 304.014 543.447 303.565C542.555 303.111 541.836 302.494 541.29 301.716C540.751 300.932 540.424 300.051 540.31 299.074H543.949C544.092 299.71 544.39 300.205 544.844 300.557C545.299 300.903 545.861 301.077 546.532 301.077C547.668 301.077 548.532 300.582 549.123 299.594C549.714 298.599 550.012 297.239 550.018 295.511H549.898C549.637 296.023 549.285 296.463 548.842 296.832C548.398 297.196 547.89 297.477 547.316 297.676C546.748 297.875 546.143 297.974 545.501 297.974C544.472 297.974 543.555 297.733 542.748 297.25C541.941 296.767 541.305 296.102 540.839 295.256C540.373 294.409 540.14 293.443 540.14 292.358C540.134 291.187 540.404 290.145 540.949 289.23C541.495 288.315 542.256 287.599 543.234 287.082C544.217 286.56 545.359 286.301 546.66 286.307ZM546.685 289.205C546.111 289.205 545.6 289.341 545.151 289.614C544.708 289.886 544.356 290.253 544.094 290.713C543.839 291.173 543.714 291.687 543.719 292.256C543.719 292.83 543.844 293.347 544.094 293.807C544.35 294.261 544.697 294.625 545.134 294.898C545.577 295.165 546.083 295.298 546.651 295.298C547.077 295.298 547.472 295.219 547.836 295.06C548.2 294.901 548.515 294.682 548.782 294.403C549.055 294.119 549.268 293.793 549.421 293.423C549.574 293.054 549.651 292.662 549.651 292.247C549.646 291.696 549.515 291.19 549.259 290.73C549.003 290.27 548.651 289.901 548.202 289.622C547.753 289.344 547.248 289.205 546.685 289.205Z" fill="#F5EFE8"/>
<path d="M569.933 293.832V296.713H561.973V293.832H569.933Z" fill="#F5EFE8"/>
<path d="M593.249 286.545V304H590.062L582.468 293.014H582.34V304H578.65V286.545H581.888L589.422 297.523H589.576V286.545H593.249Z" fill="#F5EFE8"/>
<path d="M612.338 295.273C612.338 297.176 611.977 298.795 611.256 300.131C610.54 301.466 609.562 302.486 608.324 303.19C607.091 303.889 605.704 304.239 604.165 304.239C602.614 304.239 601.221 303.886 599.989 303.182C598.756 302.477 597.781 301.457 597.065 300.122C596.349 298.787 595.991 297.17 595.991 295.273C595.991 293.369 596.349 291.75 597.065 290.415C597.781 289.08 598.756 288.062 599.989 287.364C601.221 286.659 602.614 286.307 604.165 286.307C605.704 286.307 607.091 286.659 608.324 287.364C609.562 288.062 610.54 289.08 611.256 290.415C611.977 291.75 612.338 293.369 612.338 295.273ZM608.596 295.273C608.596 294.04 608.412 293 608.043 292.153C607.679 291.307 607.165 290.665 606.5 290.227C605.835 289.79 605.057 289.571 604.165 289.571C603.273 289.571 602.494 289.79 601.829 290.227C601.165 290.665 600.648 291.307 600.278 292.153C599.915 293 599.733 294.04 599.733 295.273C599.733 296.506 599.915 297.545 600.278 298.392C600.648 299.239 601.165 299.881 601.829 300.318C602.494 300.756 603.273 300.974 604.165 300.974C605.057 300.974 605.835 300.756 606.5 300.318C607.165 299.881 607.679 299.239 608.043 298.392C608.412 297.545 608.596 296.506 608.596 295.273Z" fill="#F5EFE8"/>
<path d="M618.344 304L613.35 286.545H617.381L620.271 298.673H620.415L623.603 286.545H627.055L630.234 298.699H630.387L633.276 286.545H637.307L632.313 304H628.717L625.393 292.588H625.256L621.941 304H618.344Z" fill="#F5EFE8"/>
<path d="M650.888 295.273C650.888 297.392 650.604 299.341 650.036 301.119C649.474 302.898 648.61 304.545 647.445 306.062H643.977C644.42 305.5 644.832 304.812 645.212 304C645.593 303.188 645.925 302.301 646.209 301.341C646.494 300.375 646.715 299.375 646.874 298.341C647.033 297.307 647.113 296.284 647.113 295.273C647.113 293.926 646.974 292.568 646.695 291.199C646.423 289.824 646.048 288.551 645.57 287.381C645.099 286.205 644.567 285.241 643.977 284.491H647.445C648.61 286.009 649.474 287.656 650.036 289.435C650.604 291.213 650.888 293.159 650.888 295.273Z" fill="#F5EFE8"/>
<path d="M729 253C748.33 253 764 237.33 764 218C764 198.67 748.33 183 729 183C709.67 183 694 198.67 694 218C694 237.33 709.67 253 729 253ZM737.75 206.625C737.75 205.175 738.925 204 740.375 204C741.825 204 743 205.175 743 206.625V229.375C743 230.825 741.825 232 740.375 232H717.625C716.175 232 715 230.825 715 229.375C715 227.925 716.175 226.75 717.625 226.75H734.216L715.778 208.49C714.748 207.47 714.74 205.808 715.76 204.778C716.78 203.748 718.442 203.74 719.472 204.76L737.75 222.861V206.625Z" fill="#F5EFE8"/>
</svg>
